<?xml version="1.0" encoding="utf-8"?>
<!-- Generator: Adobe Illustrator 22.0.1, SVG Export Plug-In . SVG Version: 6.00 Build 0)  -->
<svg version="1.1" id="Capa_1" xmlns="http://www.w3.org/2000/svg" xmlns:xlink="http://www.w3.org/1999/xlink" x="0px" y="0px"
	 viewBox="0 0 384.2 233.7" style="enable-background:new 0 0 384.2 233.7;" xml:space="preserve">
<style type="text/css">
	.st0{fill:#FFFFFF;}
	.st1{fill:none;}
</style>
<title>JUNTOS-PODEMOS_Logo (Pos)</title>
<g>
	<path class="st0" d="M98.8,88.8c3.9,5.3,12,4.1,20.1-1.1c12.4-7.9,28.5-23.4,55.8-29.5s49.9-5.3,72-0.8s56.7,14.1,91.8,34.8
		c-18-15.7-77.2-41.8-125.8-45.4s-82.2,5.9-100.3,17S97.1,86.5,98.8,88.8z"/>
	<path class="st0" d="M209.4,128.6c0,1.7-0.6,3.4-1.7,4.6c-2.1,2.3-5.7,2.5-8,0.4c-0.2-0.1-0.3-0.3-0.4-0.4
		c-1.2-1.3-1.8-2.9-1.7-4.6h2.6c0,1,0.3,1.9,1,2.6c0.6,0.7,1.5,1.1,2.4,1.1c0.9,0,1.7-0.4,2.3-1.1c0.7-0.7,1-1.6,1-2.6v-17h2.6
		L209.4,128.6z"/>
	<path class="st0" d="M282,114.4v20.4h-2.7v-20.4h-4.5v-2.9h11.7v2.9L282,114.4z"/>
	<path class="st0" d="M236.3,125.4c0.1,2.4-0.8,4.8-2.5,6.6c-2.9,3.3-8,3.6-11.3,0.7c-0.3-0.2-0.5-0.5-0.7-0.7
		c-1.7-1.8-2.5-4.1-2.5-6.6v-13.9h2.6v13.9c0,1.7,0.6,3.3,1.7,4.6c2,2.3,5.5,2.5,7.8,0.5c0.2-0.2,0.4-0.3,0.5-0.5
		c1.2-1.2,1.8-2.9,1.7-4.6v-13.9h2.6L236.3,125.4z"/>
	<polygon class="st0" points="262,134.7 249.3,116.3 249.3,134.7 246.6,134.7 246.6,111.7 249.4,111.7 262.1,130.1 262.1,111.7 
		264.8,111.7 264.8,134.7 	"/>
	<path class="st0" d="M303.4,134.6c-3,0-5.9-1.2-8-3.4c-4.5-4.5-4.5-11.7,0-16.2c4.3-4.4,11.3-4.6,15.8-0.3c0.1,0.1,0.2,0.2,0.3,0.3
		c4.5,4.5,4.5,11.7,0,16.2c0,0,0,0,0,0C309.4,133.4,306.4,134.6,303.4,134.6z M303.4,114.3c-2.3,0-4.6,0.9-6.2,2.6
		c-3.4,3.4-3.5,9,0,12.4c0,0,0,0,0,0c3.3,3.4,8.8,3.5,12.2,0.2c0.1-0.1,0.1-0.1,0.2-0.2c3.4-3.4,3.5-9,0-12.4c0,0,0,0,0,0
		C308,115.2,305.7,114.2,303.4,114.3z"/>
	<path class="st0" d="M330.8,134.5c-3.7,0-8.1-2-8.1-7.8h2.6c0,4.5,3.4,5.2,5.5,5.2c2.5,0,5.2-1.4,5.2-4.5c0-3.3-4.1-3.4-4.3-3.4
		h-1.5c-6.3,0-7.6-3.4-7.6-6.2c0-3.1,3-6.4,7.7-6.4c5.8,0,7.5,4.1,7.5,6.2h-2.6c0-0.3-0.3-3.5-4.9-3.5c-3.5,0-5.1,2.2-5.1,3.8
		c0,1.8,0.6,3.6,5,3.6h1.5c2.4,0,6.9,1.3,6.9,6S334.7,134.5,330.8,134.5z"/>
	<path class="st0" d="M211.4,149.1c0,1.3-0.4,2.5-1.3,3.5c-0.8,0.9-1.9,1.4-3.1,1.4h-7.3v12h-2v-21.8h9.3c1.2,0,2.4,0.5,3.1,1.5
		C211,146.6,211.4,147.9,211.4,149.1z M209.4,149.1c0-0.7-0.3-1.4-0.7-1.9c-0.4-0.5-1.1-0.8-1.8-0.8h-7.3v5.4h7.4
		c0.7,0,1.3-0.3,1.8-0.8C209.2,150.5,209.5,149.8,209.4,149.1L209.4,149.1z"/>
	<path class="st0" d="M225.5,166.2c-3,0.1-5.9-1.1-8-3.2c-4.3-4.2-4.4-11.1-0.3-15.4c0.1-0.1,0.2-0.2,0.3-0.3
		c4.4-4.4,11.5-4.4,15.9,0c4.3,4.2,4.5,11,0.3,15.4c-0.1,0.1-0.2,0.2-0.3,0.3C231.3,165.1,228.4,166.2,225.5,166.2z M225.5,146.6
		c-2.3,0-4.5,0.9-6.1,2.5c-3.3,3.2-3.4,8.5-0.2,11.8c0.1,0.1,0.1,0.1,0.2,0.2c3.4,3.4,8.9,3.4,12.3,0c3.3-3.2,3.4-8.5,0.2-11.8
		c-0.1-0.1-0.1-0.1-0.2-0.2C230,147.5,227.8,146.6,225.5,146.6z"/>
	<path class="st0" d="M309.5,166.2c-3,0.1-5.9-1.1-8-3.2c-4.3-4.2-4.4-11.1-0.3-15.4c0.1-0.1,0.2-0.2,0.3-0.3
		c4.4-4.4,11.5-4.4,15.9,0c4.3,4.2,4.5,11,0.3,15.4c-0.1,0.1-0.2,0.2-0.3,0.3C315.3,165.1,312.4,166.2,309.5,166.2z M309.5,146.6
		c-2.3,0-4.5,0.9-6.1,2.5c-3.3,3.2-3.4,8.5-0.2,11.8c0.1,0.1,0.1,0.1,0.2,0.2c3.4,3.4,8.9,3.4,12.3,0c3.3-3.2,3.4-8.5,0.2-11.8
		c-0.1-0.1-0.1-0.1-0.2-0.2C314,147.5,311.8,146.6,309.5,146.6z"/>
	<path class="st0" d="M239.3,166.6v-22.4h5.7c2.8,0,5.4,1.2,7.2,3.3c4,4.5,4,11.3,0,15.9c-1.8,2.1-4.4,3.3-7.2,3.3H239.3z
		 M241.7,164h3.3c2.1,0,4.1-0.9,5.5-2.5c3.1-3.4,3.1-8.6,0-12.1c-1.4-1.6-3.4-2.5-5.5-2.5h-3.3V164z"/>
	<polygon class="st0" points="258,166.6 258,144.2 272,144.2 272,146.8 260.4,146.8 260.4,151.5 264.5,151.5 264.5,154.2 
		260.4,154.2 260.4,164 271.9,164 271.9,166.6 	"/>
	<path class="st0" d="M293,166.4v-15.6l-6.4,15.6h-2.9l-6.4-15.6v15.6h-2.6v-22.2h2.7l7.7,18.8l7.8-18.8h2.7v22.2L293,166.4z"/>
	<path class="st0" d="M330.9,166.5c-3.6,0-7.8-2-7.8-7.6h2.5c0,4.4,3.3,5,5.3,5c2.5,0,5.1-1.4,5.1-4.4c0-3.2-4-3.3-4.2-3.3h-1.4
		c-6.1,0-7.4-3.3-7.4-6c0-3,2.9-6.2,7.5-6.2c5.6,0,7.2,3.9,7.3,6h-2.5c0-0.4-0.3-3.4-4.7-3.4c-3.4,0-5,2.2-5,3.6
		c0,1.8,0.6,3.5,4.9,3.5h1.5c2.3,0,6.7,1.2,6.7,5.8S334.7,166.5,330.9,166.5z"/>
	<path class="st0" d="M226.8,183.2c0,1.2-0.4,2.3-1.2,3.2c-1.3,1.6-3.6,1.8-5.1,0.5c-0.2-0.1-0.3-0.3-0.5-0.5
		c-0.8-0.9-1.2-2-1.2-3.2v-6.8h1.2v6.8c0,0.8,0.3,1.6,0.8,2.2c0.9,1.1,2.5,1.2,3.6,0.3c0.1-0.1,0.2-0.2,0.3-0.3
		c0.5-0.6,0.8-1.4,0.8-2.2v-6.8h1.2V183.2z"/>
	<path class="st0" d="M270.1,183.2c0,1.2-0.4,2.3-1.2,3.2c-1.4,1.6-3.9,1.8-5.5,0.4c-0.1-0.1-0.2-0.2-0.4-0.4
		c-0.8-0.9-1.2-2-1.2-3.2v-6.8h1.3v6.8c0,0.8,0.3,1.6,0.8,2.2c1,1.1,2.7,1.2,3.8,0.2c0.1-0.1,0.1-0.1,0.2-0.2
		c0.6-0.6,0.9-1.4,0.8-2.2v-6.8h1.3L270.1,183.2z"/>
	<path class="st0" d="M338.3,183.2c0,1.2-0.4,2.3-1.2,3.2c-1.4,1.6-3.9,1.8-5.5,0.4c-0.1-0.1-0.2-0.2-0.4-0.4
		c-0.8-0.9-1.2-2-1.2-3.2v-6.8h1.3v6.8c0,0.8,0.3,1.6,0.8,2.2c1,1.1,2.7,1.2,3.8,0.2c0.1-0.1,0.1-0.1,0.2-0.2
		c0.6-0.6,0.9-1.4,0.8-2.2v-6.8h1.3L338.3,183.2z"/>
	<polygon class="st0" points="291.7,187.4 285.8,178.6 285.8,187.4 284.5,187.4 284.5,176.4 285.8,176.4 291.7,185.2 291.7,176.4 
		293,176.4 293,187.4 	"/>
	<path class="st0" d="M204.2,178.1c-1.6-0.9-3.6-0.6-4.8,0.8c-1.6,1.7-1.6,4.4,0,6.1c0.7,0.8,1.8,1.3,2.9,1.3c0.7,0,1.3-0.2,1.9-0.5
		l0.6,1.2c-0.8,0.5-1.7,0.7-2.6,0.7c-1.5,0-2.8-0.6-3.8-1.7c-2.1-2.3-2.1-5.8,0-8.1c1-1.1,2.4-1.7,3.8-1.7c0.9,0,1.8,0.3,2.6,0.7
		L204.2,178.1z"/>
	<path class="st0" d="M307.6,187.6v-11.1h3.1c3.1,0,5.6,2.5,5.6,5.6c0,3.1-2.5,5.6-5.6,5.6c0,0,0,0,0,0H307.6z M308.9,186.2h1.8
		c1.1,0,2.2-0.4,3-1.3c1.7-1.6,1.7-4.3,0.1-5.9c0,0,0-0.1-0.1-0.1c-0.8-0.8-1.9-1.3-3-1.3h-1.8V186.2z"/>
	<path class="st0" d="M243.9,182.5h-1.3v4.8h-1.3v-11h3.8c0.8,0,1.5,0.3,2.1,0.9c0.6,0.6,0.9,1.3,0.9,2.1c0,0.8-0.3,1.5-0.8,2.1
		c-0.5,0.6-1.1,0.9-1.9,1L243.9,182.5z M246.8,179.4c0-0.4-0.2-0.9-0.5-1.2c-0.3-0.3-0.7-0.5-1.1-0.5h-2.5v3.4h2.5
		c0.4,0,0.8-0.2,1.1-0.5C246.6,180.3,246.8,179.8,246.8,179.4z"/>
	<path class="st0" d="M246.9,187.3c0,0-0.3-1.3-0.8-2.9c-0.1-0.6-0.4-1.1-0.8-1.5l-0.1-0.1l0,0c-0.2-0.2-0.4-0.2-0.7-0.2v-1.3
		c0.6,0,1.1,0.2,1.6,0.6c0.7,0.6,1.1,1.3,1.3,2.2c0.3,1.1,0.6,2.2,0.9,3.3L246.9,187.3z"/>
	<path class="st0" d="M113.2,186.6c1.7-5.1,2.6-10.5,2.8-15.9v-1c0.1-7.2,0.2-10.8-2.1-11.9c-1.6-0.7-5,0.1-7.8,0.8
		c-1.4,0.4-2.9,0.7-4.4,0.8c-1.9,0-3.7-0.7-5-2c-1.2-1.2-2.7-3.6-2.6-7.8c-0.1-3,1.4-5.9,3.9-7.5c1.8-1.2,3.9-1.8,6.1-1.8
		c1.5,0.1,2.9,0.4,4.3,0.9c2,0.7,4,1.1,6.1,1.1c1.2-0.1,2.2-1.5,2.7-3.7c0.8-3.7,0.1-8.4-2.7-9.9l-0.1-0.1h-0.1
		c-1.2-0.6-2.6-0.9-4-0.8c-1.8,0.2-3.6,0.5-5.3,0.9c-3.4,0.8-9.6,0.7-12.8-0.4s-1.3-5.5,0-7.3c2.5-3.3,3.8-7.4,3.8-11.5
		c0-5.7-2.4-14.3-14.7-14.5s-15.8,8.6-15.9,14s2.7,9.8,4.8,12.6s3,7.7-3.3,7.6c-2,0-9.4-0.9-13.2-0.8s-7,0.4-8,5.2s0.7,8.5,2.9,8.6
		s8.1-2.2,12.1-2.1s8.8,3.3,8.2,9.4s-4.4,8-7.2,7.9s-5.9-1.5-7.2-2s-5-2.2-6.1,3.2s-1.5,12.9,2.2,28.8l22.6,0.4c0,0,3.3-1,3.4-6.1
		s-1.4-3.7-1.2-7.5s4.5-5.1,7.7-5.1s5.9,2.6,5.8,5.1s-1.1,4.5-1.2,7.1s1,6.2,5.1,6.5s7-0.8,12.8-1c4.2-0.1,6.4,0,7.3,0.1l0,0
		C113.1,186.7,113.2,186.7,113.2,186.6z"/>
	<path class="st0" d="M179.6,143.6c-4.4-0.1-6.2,1.4-9,1.4s-4-2.8-2.6-6.1s3.7-6.4,2.5-9.1s-12.5-1.5-14.9-1.3s-4.8-0.9-5-3.8
		s5.7-8.1,5.5-15.1s-4.7-14.6-15.6-14.7s-14.5,8.5-14.6,14.7s5.3,10.5,5.5,14.4s-1.8,3.8-5.1,3.7c-3.6-0.2-7.1,0-10.7,0.6
		c2.9,2,3.6,6.9,2.7,10.6c-0.6,2.7-2,4.4-3.7,4.5c-2.2,0-4.4-0.4-6.4-1.1c-1.3-0.4-2.7-0.7-4.1-0.8c-1.9,0-3.8,0.5-5.5,1.6
		c-2.2,1.5-3.6,4-3.4,6.7c0,3.1,0.8,5.5,2.3,7.1c1.1,1.1,2.6,1.7,4.2,1.8c1.4-0.1,2.8-0.4,4.2-0.8c3.1-0.7,6.6-1.6,8.5-0.7
		c2.9,1.3,2.8,5.1,2.7,12.8v1c-0.2,5.4-1.2,10.8-2.8,16c2.2,0.1,5.7,0.4,8.9,0.5c5.1,0.2,12.1,1.7,14.5-3.1s-0.8-5.3-1.2-9.2
		s3.8-5.3,6.6-5.3s5.8,1.8,5.8,5.2s-1,4.8-1,7s1.7,5.6,11.2,5.8s9.9-1.6,10.4-2.8s-0.7-8.1-2.1-17.1s1.6-9.8,3.9-9.8
		s4.2,2.2,8.9,2.4s7.1-3,7.1-8.5S184.1,143.7,179.6,143.6z"/>
	<rect x="45.6" y="46" class="st1" width="293" height="141.7"/>
	<rect y="0" class="st1" width="384.2" height="233.6"/>
	<path class="st1" d="M350,128.3c-3,0-5.9-1.2-8-3.3c-4.5-4.5-4.5-11.7,0-16.2c4.3-4.4,11.3-4.6,15.8-0.3c0.1,0.1,0.2,0.2,0.3,0.3
		c4.5,4.5,4.5,11.7,0,16.2c0,0,0,0-0.1,0.1C355.9,127.2,353,128.4,350,128.3z M350,108c-2.3,0-4.6,0.9-6.2,2.6
		c-3.4,3.4-3.5,9,0,12.5c0,0,0,0,0,0c3.3,3.4,8.8,3.5,12.3,0.1c0,0,0.1-0.1,0.1-0.1c3.4-3.4,3.5-9,0-12.5c0,0,0,0,0,0
		C354.6,108.9,352.3,108,350,108z"/>
	<path class="st1" d="M372.8,128.3c-3,0-5.9-1.2-8-3.3c-4.5-4.5-4.5-11.7,0-16.2c4.3-4.4,11.3-4.6,15.8-0.3c0.1,0.1,0.2,0.2,0.3,0.3
		c4.5,4.5,4.5,11.7,0,16.2c0,0,0,0,0,0C378.8,127.2,375.8,128.4,372.8,128.3z M372.8,108c-2.3,0-4.6,0.9-6.2,2.6
		c-3.4,3.4-3.5,9,0,12.4c0,0,0,0,0,0c3.3,3.4,8.8,3.5,12.2,0.1c0,0,0.1-0.1,0.1-0.1c3.4-3.4,3.5-9,0-12.5c0,0,0,0,0,0
		C377.4,108.9,375.1,108,372.8,108z"/>
	<path class="st1" d="M11.4,128.3c-3,0-5.9-1.2-8-3.3c-4.5-4.5-4.5-11.7,0-16.2c2.1-2.2,5-3.4,8-3.4c3,0,5.9,1.2,8,3.4
		c4.5,4.5,4.5,11.7,0,16.2c0,0,0,0,0,0C17.3,127.1,14.4,128.3,11.4,128.3z M11.4,108c-2.3,0-4.6,0.9-6.2,2.6c-3.4,3.4-3.5,9,0,12.5
		c0,0,0,0,0,0c1.6,1.7,3.9,2.6,6.2,2.6c2.3,0,4.6-0.9,6.2-2.6c3.4-3.4,3.5-9,0-12.5c0,0,0,0,0,0C16,108.9,13.7,108,11.4,108z"/>
	<path class="st1" d="M34.2,128.3c-3,0-5.9-1.2-8-3.3c-4.5-4.5-4.5-11.7,0-16.2c4.3-4.4,11.3-4.6,15.8-0.3c0.1,0.1,0.2,0.2,0.3,0.3
		c4.5,4.5,4.5,11.7,0,16.2c0,0,0,0,0,0C40.1,127.2,37.2,128.4,34.2,128.3z M34.2,108c-2.3,0-4.6,0.9-6.2,2.6c-3.4,3.4-3.5,9,0,12.5
		c0,0,0,0,0,0c3.3,3.4,8.8,3.5,12.3,0.1c0,0,0.1-0.1,0.1-0.1c3.4-3.4,3.5-9,0-12.5c0,0,0,0,0,0C38.8,108.9,36.5,108,34.2,108z"/>
	<path class="st1" d="M192.1,210.7c-3,0-5.9-1.2-8-3.4c-4.5-4.5-4.5-11.7,0-16.2c0,0,0,0,0,0c4.3-4.4,11.3-4.6,15.8-0.3
		c0.1,0.1,0.2,0.2,0.3,0.3c4.5,4.5,4.5,11.7,0,16.2c0,0,0,0,0,0C198.1,209.5,195.1,210.7,192.1,210.7z M192.1,190.3
		c-2.3,0-4.6,0.9-6.2,2.6c-3.4,3.4-3.5,9-0.1,12.4c0,0,0,0,0.1,0.1c3.3,3.4,8.8,3.5,12.2,0.2c0.1-0.1,0.1-0.1,0.2-0.2
		c3.4-3.4,3.5-9,0-12.4c0,0,0,0,0,0C196.7,191.3,194.4,190.3,192.1,190.3L192.1,190.3z"/>
	<path class="st1" d="M192.1,233.7c-3,0-5.9-1.2-8-3.4c-4.5-4.5-4.5-11.7,0-16.2c0,0,0,0,0,0c4.3-4.4,11.3-4.6,15.8-0.3
		c0.1,0.1,0.2,0.2,0.3,0.3c4.5,4.5,4.5,11.7,0,16.2c0,0,0,0,0,0C198.1,232.5,195.1,233.7,192.1,233.7z M192.1,213.3
		c-2.3,0-4.6,0.9-6.2,2.6c-3.4,3.4-3.5,9-0.1,12.4c0,0,0,0,0.1,0.1c3.3,3.4,8.8,3.5,12.2,0.2c0.1-0.1,0.1-0.1,0.2-0.2
		c3.4-3.4,3.5-9,0-12.4c0,0,0,0,0,0C196.7,214.3,194.4,213.3,192.1,213.3z"/>
	<path class="st1" d="M192.1,23c-3,0-5.9-1.2-8-3.4c-2.2-2.1-3.4-5.1-3.4-8.1c0-3,1.2-6,3.4-8.1c4.3-4.4,11.3-4.6,15.8-0.3
		c0.1,0.1,0.2,0.2,0.3,0.3c2.2,2.1,3.4,5.1,3.4,8.1c0,3.1-1.2,6-3.4,8.1C198.1,21.8,195.1,23,192.1,23z M192.1,2.7
		c-2.3,0-4.6,0.9-6.2,2.6c-1.7,1.6-2.6,3.9-2.6,6.2c0,2.3,0.9,4.6,2.6,6.2c3.3,3.4,8.8,3.5,12.2,0.2c0.1-0.1,0.1-0.1,0.2-0.2
		c1.7-1.6,2.6-3.9,2.6-6.2c0-2.3-0.9-4.6-2.6-6.2C196.7,3.6,194.4,2.6,192.1,2.7L192.1,2.7z"/>
	<path class="st1" d="M192.1,46c-3,0-5.9-1.2-8-3.4c-4.5-4.5-4.5-11.7,0-16.2c0,0,0,0,0,0c4.3-4.4,11.3-4.6,15.8-0.3
		c0.1,0.1,0.2,0.2,0.3,0.3c4.5,4.5,4.5,11.7,0,16.2c0,0,0,0,0,0C198.1,44.8,195.1,46,192.1,46z M192.1,25.7c-2.3,0-4.6,0.9-6.2,2.6
		c-3.4,3.4-3.5,9-0.1,12.4c0,0,0,0,0.1,0.1c3.3,3.4,8.8,3.5,12.2,0.2c0.1-0.1,0.1-0.1,0.2-0.2c3.4-3.4,3.5-9,0-12.4c0,0,0,0,0,0
		C196.7,26.6,194.5,25.6,192.1,25.7L192.1,25.7z"/>
</g>
</svg>
